# xmcd CD database file
#
# Track frame offsets:
#	150
#	28472
#	50623
#	71346
#	106543
#	139318
#	180967
#	216581
#	251696
#
# Disc length: 3717 seconds
#
# Revision: 0
# Processed by: cddbd v1.5.1PL0 Copyright (c) Steve Scherf et al.
# Submitted via: CDex 1.51
#
DISCID=830e8309
DTITLE=Kenny Drew Jr. Sextet - Crystal River
DYEAR=1995
DGENRE=Jazz
TTITLE0=Confrontation
TTITLE1=Undercurrent
TTITLE2=White Gardenia
TTITLE3=Largo - Piano Solo
TTITLE4=The First Love Letter - Trio
TTITLE5=Manhattan Sunset
TTITLE6=Crystal River
TTITLE7=Sweet And Lovely
TTITLE8=Straight Jacket
EXTD=YEAR: 1995
EXTT0=
EXTT1=
EXTT2=
EXTT3=
EXTT4=
EXTT5=
EXTT6=
EXTT7=
EXTT8=
PLAYORDER=
